$MeshFormat
4.1 0 8
$EndMeshFormat
$Entities
8 9 2 0
1 0 -3.6 0 0 
2 50 -3.6 0 0 
3 50 3.6 0 0 
4 0 3.6 0 0 
5 50 -8.6 0 0 
6 100 -8.6 0 0 
7 100 8.6 0 0 
8 50 8.6 0 0 
1 -1.000000011686097e-07 -3.6000001 -1e-07 50.0000001 -3.5999999 1e-07 1 3 2 1 -2 
2 49.9999999 -3.600000100000001 -1.000000008881784e-07 50.0000001 3.600000100000001 1.000000008881784e-07 0 2 2 -3 
3 -1.000000011686097e-07 3.5999999 -1e-07 50.0000001 3.6000001 1e-07 1 3 2 3 -4 
4 -1e-07 -3.6000001 -1e-07 1e-07 3.6000001 1e-07 1 1 2 4 -1 
5 49.9999999 -8.600000099999999 -1e-07 100.0000001 -8.5999999 1e-07 1 3 2 5 -6 
6 99.99999990000001 -8.600000099999999 -1e-07 100.0000001 8.600000099999999 1e-07 1 2 2 6 -7 
7 49.9999999 8.5999999 -1e-07 100.0000001 8.600000099999999 1e-07 1 3 2 7 -8 
8 49.9999999 3.5999999 -1e-07 50.0000001 8.600000099999999 1e-07 1 3 2 8 -3 
9 49.9999999 -8.600000099999999 -1e-07 50.0000001 -3.5999999 1e-07 1 3 2 2 -5 
1 -1.000000011686097e-07 -3.600000100000001 -1.000000008881784e-07 50.0000001 3.600000100000001 1.000000008881784e-07 1 10 4 1 2 3 4 
2 49.9999999 -8.600000100000001 -1.000000008881784e-07 100.0000001 8.600000100000001 1.000000008881784e-07 1 10 6 5 6 7 8 -2 9 
$EndEntities
$Nodes
19 92 1 92
0 1 0 1
1
0 -3.6 0
0 2 0 1
2
50 -3.6 0
0 3 0 1
3
50 3.6 0
0 4 0 1
4
0 3.6 0
0 5 0 1
5
50 -8.6 0
0 6 0 1
6
100 -8.6 0
0 7 0 1
7
100 8.6 0
0 8 0 1
8
50 8.6 0
1 1 0 9
9
10
11
12
13
14
15
16
17
5 -3.6 0
10 -3.6 0
15 -3.6 0
20 -3.6 0
25 -3.6 0
30 -3.6 0
35 -3.6 0
40 -3.6 0
45 -3.6 0
1 2 0 1
18
50 -2.220446049250313e-15 0
1 3 0 9
19
20
21
22
23
24
25
26
27
45 3.6 0
40 3.6 0
35 3.6 0
30 3.6 0
25 3.6 0
20 3.6 0
15 3.6 0
10 3.6 0
5 3.6 0
1 4 0 1
28
0 2.220446049250313e-15 0
1 5 0 9
29
30
31
32
33
34
35
36
37
55 -8.6 0
60 -8.6 0
65 -8.6 0
70 -8.6 0
75 -8.6 0
80 -8.6 0
85 -8.6 0
90 -8.6 0
95 -8.6 0
1 6 0 3
38
39
40
100 -4.30000000000001 0
100 -1.598721155460225e-14 0
100 4.299999999999992 0
1 7 0 9
41
42
43
44
45
46
47
48
49
95 8.6 0
90 8.6 0
85 8.6 0
80 8.6 0
75 8.6 0
70 8.6 0
65 8.6 0
60 8.6 0
55 8.6 0
1 8 0 0
1 9 0 0
2 1 0 10
50
51
52
53
54
55
56
57
58
59
7.55423087602388 -0.002771800330110733 0
12.5 -4.266983037300602e-16 0
17.5 1.931757387063615e-17 0
22.5 1.94011617745752e-17 0
32.5 1.977564114932945e-18 0
27.5 1.873608497926723e-17 0
37.5 2.057553838975737e-17 0
42.44576912397612 -0.002771800330109292 0
3.535429286235939 -0.04737834063628556 0
46.46457071376406 -0.04737834063628947 0
2 2 0 33
60
61
62
63
64
65
66
67
68
69
70
71
72
73
74
75
76
77
78
79
80
81
82
83
84
85
86
87
88
89
90
91
92
67.48241425256168 -4.29807655317431 0
77.5 -4.269872981077807 0
87.4479393575984 -4.320014886264019 0
53.35632358212322 1.897136159238236 0
92.72144364925988 4.17405273815355 0
82.5 4.269872981077807 0
72.5 4.269872981077807 0
62.47105038628146 4.209710890163659 0
96.45629028173492 -2.033118753750577 0
57.15588370128961 -4.12810274383848 0
62.47608474421869 -4.279865322193224 0
60.13098589414178 -0.0193891841304514 0
64.9593754182318 -0.04208622114721478 0
57.20455061684996 4.105662770389324 0
67.4928860232566 4.23808533022103 0
87.5 4.26987298107781 0
72.51107246690667 -4.294658255708685 0
82.4913232262664 -4.298314644556969 0
77.5 4.269872981077808 0
89.72722120226391 -0.05438425058983116 0
84.94441396435478 -0.02216130320920049 0
80 -1.067928814163246e-16 0
75.00412558203982 -0.001075301724579964 0
69.99164562383277 -0.0213230034093256 0
96.27609076372691 2.149999999999988 0
53.22649698228658 -1.841084023133851 0
92.70078080324136 -4.172287725228789 0
53.14781847254617 -5.452181527453826 0
53.14781847254618 5.452181527453827 0
56.29682659002104 0.0007404716016596837 0
96.79950688259736 5.564810547630707 0
96.83141421699526 -5.541081295795874 0
93.5763653400454 0.01285240171686837 0
$EndNodes
$Elements
10 182 1 182
1 1 1 10
1 1 9 
2 9 10 
3 10 11 
4 11 12 
5 12 13 
6 13 14 
7 14 15 
8 15 16 
9 16 17 
10 17 2 
1 3 1 10
11 3 19 
12 19 20 
13 20 21 
14 21 22 
15 22 23 
16 23 24 
17 24 25 
18 25 26 
19 26 27 
20 27 4 
1 4 1 2
21 4 28 
22 28 1 
1 5 1 10
23 5 29 
24 29 30 
25 30 31 
26 31 32 
27 32 33 
28 33 34 
29 34 35 
30 35 36 
31 36 37 
32 37 6 
1 6 1 4
33 6 38 
34 38 39 
35 39 40 
36 40 7 
1 7 1 10
37 7 41 
38 41 42 
39 42 43 
40 43 44 
41 44 45 
42 45 46 
43 46 47 
44 47 48 
45 48 49 
46 49 8 
1 8 1 1
47 8 3 
1 9 1 1
48 2 5 
2 1 2 42
49 28 58 4 
50 3 59 18 
51 1 58 28 
52 18 59 2 
53 19 59 3 
54 4 58 27 
55 9 58 1 
56 2 59 17 
57 27 50 26 
58 50 51 26 
59 12 52 11 
60 11 52 51 
61 13 53 12 
62 14 55 13 
63 15 54 14 
64 54 55 14 
65 16 56 15 
66 17 57 16 
67 21 56 20 
68 22 54 21 
69 54 56 21 
70 23 55 22 
71 24 53 23 
72 53 55 23 
73 25 52 24 
74 52 53 24 
75 26 51 25 
76 51 52 25 
77 10 50 9 
78 11 51 10 
79 12 53 52 
80 13 55 53 
81 15 56 54 
82 16 57 56 
83 20 57 19 
84 56 57 20 
85 22 55 54 
86 10 51 50 
87 27 58 50 
88 57 59 19 
89 50 58 9 
90 17 59 57 
2 2 2 92
91 49 73 48 
92 67 73 71 
93 73 88 63 
94 30 70 69 
95 85 87 69 
96 5 87 2 
97 3 88 8 
98 69 89 85 
99 48 73 67 
100 30 69 29 
101 70 71 69 
102 63 89 73 
103 60 83 72 
104 47 74 46 
105 72 83 74 
106 31 70 30 
107 60 70 31 
108 46 74 66 
109 67 74 47 
110 71 72 67 
111 60 72 70 
112 42 75 64 
113 48 67 47 
114 42 64 41 
115 65 75 43 
116 43 75 42 
117 32 60 31 
118 33 76 32 
119 34 61 33 
120 61 76 33 
121 35 77 34 
122 36 62 35 
123 62 77 35 
124 44 65 43 
125 46 66 45 
126 66 78 45 
127 32 76 60 
128 34 77 61 
129 45 78 44 
130 44 78 65 
131 75 79 64 
132 76 83 60 
133 75 80 79 
134 79 80 62 
135 65 80 75 
136 80 81 77 
137 62 80 77 
138 78 81 65 
139 61 82 76 
140 77 81 61 
141 81 82 61 
142 66 82 78 
143 65 81 80 
144 78 82 81 
145 37 86 36 
146 72 74 67 
147 74 83 66 
148 70 72 71 
149 66 83 82 
150 82 83 76 
151 62 86 79 
152 49 88 73 
153 40 84 39 
154 39 68 38 
155 36 86 62 
156 69 87 29 
157 2 85 18 
158 18 63 3 
159 73 89 71 
160 41 90 7 
161 6 91 37 
162 71 89 69 
163 39 84 68 
164 29 87 5 
165 8 88 49 
166 37 91 86 
167 7 90 40 
168 38 91 6 
169 18 85 63 
170 86 91 68 
171 86 92 79 
172 68 92 86 
173 2 87 85 
174 63 88 3 
175 64 90 41 
176 79 92 64 
177 85 89 63 
178 84 90 64 
179 64 92 84 
180 40 90 84 
181 68 91 38 
182 84 92 68 
$EndElements
